<svg width="1000" height="1000" viewBox="0 0 1000 1000" xmlns="http://www.w3.org/2000/svg"><defs/><path fill="#00abbc" transform="matrix(0.5759320811524299 0 0 0.5759320811524299 99.09230708140313 20.31285331279861)" d="M 543.15741754195 444.77582987351 C 537.75741754195 473.67582987351 537.45741754195 503.57582987351 540.85741754195 532.07582987351 C 546.85741754195 522.07582987351 553.25741754195 512.37582987351 560.25741754195 503.07582987351 C 576.35741754195 481.57582987351 595.05741754195 462.27582987351 615.45741754195 445.17582987351 C 635.85741754195 428.07582987351 657.85741754195 413.17582987351 680.95741754195 400.37582987351 C 682.65741754195 399.47582987351 684.35741754195 398.57582987351 686.05741754195 397.57582987351 C 628.65741754195 389.77582987351 565.95741754195 323.47582987351 543.15741754195 444.77582987351 Z M 581.55741754195 406.47582987351 C 580.95741754195 410.57582987351 579.05741754195 421.97582987351 579.05741754195 421.97582987351 C 579.05741754195 421.97582987351 577.15741754195 410.57582987351 576.55741754195 406.47582987351 C 572.45741754195 405.87582987351 561.05741754195 403.97582987351 561.05741754195 403.97582987351 C 561.05741754195 403.97582987351 572.45741754195 402.07582987351 576.55741754195 401.47582987351 C 577.15741754195 397.37582987351 579.05741754195 385.97582987351 579.05741754195 385.97582987351 C 579.05741754195 385.97582987351 580.95741754195 397.37582987351 581.55741754195 401.47582987351 C 585.65741754195 402.07582987351 597.05741754195 403.97582987351 597.05741754195 403.97582987351 C 597.05741754195 403.97582987351 585.65741754195 405.87582987351 581.55741754195 406.47582987351 Z"/><path fill="#2c2075" transform="matrix(0.5759320811524299 0 0 0.5759320811524299 99.09230708140313 20.31285331279861)" d="M 803.55741754195 583.87582987351 C 813.85741754195 590.47582987351 824.35741754195 596.57582987351 834.85741754195 602.37582987351 C 851.15741754195 556.87582987351 859.25741754195 498.97582987351 849.05741754195 444.67582987351 C 829.75741754195 341.77582987351 781.65741754195 373.97582987351 732.45741754195 390.77582987351 C 729.05741754195 392.37582987351 725.65741754195 393.97582987351 722.35741754195 395.57582987351 C 710.95741754195 401.27582987351 699.85741754195 407.47582987351 688.95741754195 414.07582987351 C 667.25741754195 427.37582987351 646.85741754195 442.67582987351 628.35741754195 459.77582987351 C 609.75741754195 476.87582987351 593.05741754195 495.87582987351 579.05741754195 516.47582987351 C 566.75741754195 534.37582987351 556.55741754195 553.57582987351 548.55741754195 573.67582987351 C 564.75741754195 637.57582987351 597.75741754195 686.47582987351 626.55741754195 686.47582987351 C 665.05741754195 686.47582987351 650.55741754195 573.17582987351 696.05741754195 573.17582987351 C 741.55741754195 573.17582987351 727.05741754195 686.47582987351 765.55741754195 686.47582987351 C 787.45741754195 686.47582987351 811.85741754195 658.17582987351 829.35741754195 616.57582987351 C 817.95741754195 610.07582987351 806.75741754195 603.17582987351 795.75741754195 595.77582987351 C 746.25741754195 562.57582987351 701.65741754195 520.87582987351 663.15741754195 471.87582987351 C 661.55741754195 469.77582987351 661.85741754195 466.67582987351 663.85741754195 464.97582987351 C 664.75741754195 464.27582987351 665.85741754195 463.87582987351 667.05741754195 463.87582987351 C 668.55741754195 463.87582987351 669.95741754195 464.57582987351 670.85741754195 465.67582987351 C 671.55741754195 466.57582987351 672.25741754195 467.37582987351 673.05741754195 468.27582987351 L 673.85741754195 469.27582987351 C 682.15741754195 461.87582987351 691.15741754195 455.37582987351 701.15741754195 448.47582987351 L 701.55741754195 448.27582987351 L 705.55741754195 452.37582987351 L 705.05741754195 452.67582987351 C 694.95741754195 459.67582987351 685.85741754195 466.17582987351 677.55741754195 473.67582987351 C 678.65741754195 474.97582987351 679.75741754195 476.27582987351 680.85741754195 477.47582987351 L 680.85741754195 477.47582987351 C 685.25741754195 473.47582987351 689.65741754195 469.47582987351 694.15741754195 465.47582987351 C 698.35741754195 461.67582987351 702.55741754195 457.87582987351 706.75741754195 454.17582987351 L 707.15741754195 453.87582987351 L 711.15741754195 457.97582987351 L 710.75741754195 458.37582987351 C 706.55741754195 462.27582987351 702.25741754195 466.07582987351 697.95741754195 469.87582987351 C 693.55741754195 473.87582987351 689.15741754195 477.87582987351 684.75741754195 481.87582987351 C 685.65741754195 482.87582987351 687.65741754195 485.17582987351 687.65741754195 485.17582987351 C 695.75741754195 477.57582987351 703.55741754195 469.77582987351 712.65741754195 460.37582987351 L 713.05741754195 459.97582987351 L 717.05741754195 464.07582987351 L 716.75741754195 464.47582987351 C 708.85741754195 472.57582987351 700.45741754195 481.17582987351 691.55741754195 489.37582987351 C 692.25741754195 490.17582987351 693.05741754195 490.97582987351 693.85741754195 491.87582987351 C 701.95741754195 483.77582987351 710.65741754195 475.27582987351 719.85741754195 467.57582987351 L 720.25741754195 467.27582987351 L 724.25741754195 471.37582987351 L 723.85741754195 471.67582987351 C 714.65741754195 479.37582987351 705.95741754195 487.87582987351 697.85741754195 495.97582987351 C 697.85741754195 495.97582987351 699.85741754195 498.07582987351 700.35741754195 498.67582987351 C 709.55741754195 489.07582987351 717.65741754195 481.27582987351 726.65741754195 474.47582987351 L 727.05741754195 474.17582987351 L 731.05741754195 478.37582987351 L 730.55741754195 478.67582987351 C 721.55741754195 485.47582987351 713.55741754195 493.17582987351 704.35741754195 502.77582987351 C 704.35741754195 502.77582987351 706.05741754195 504.57582987351 706.85741754195 505.27582987351 C 717.05741754195 495.67582987351 725.45741754195 488.07582987351 733.25741754195 481.17582987351 L 733.65741754195 480.87582987351 L 737.65741754195 484.97582987351 L 737.25741754195 485.27582987351 C 729.25741754195 492.27582987351 720.95741754195 499.87582987351 710.95741754195 509.27582987351 C 711.85741754195 510.17582987351 712.65741754195 510.97582987351 713.55741754195 511.77582987351 C 719.95741754195 505.77582987351 726.65741754195 499.77582987351 733.15741754195 494.07582987351 C 735.45741754195 492.07582987351 740.35741754195 487.67582987351 740.35741754195 487.67582987351 L 744.35741754195 491.77582987351 C 744.35741754195 491.77582987351 739.35741754195 496.17582987351 737.15741754195 498.17582987351 C 730.75741754195 503.87582987351 724.05741754195 509.77582987351 717.65741754195 515.77582987351 C 718.45741754195 516.47582987351 720.85741754195 518.77582987351 720.85741754195 518.77582987351 L 746.45741754195 493.87582987351 L 750.45741754195 497.97582987351 L 725.05741754195 522.67582987351 C 749.55741754195 545.77582987351 776.05741754195 566.37582987351 803.55741754195 583.87582987351 Z M 796.25741754195 421.27582987351 C 797.45741754195 413.27582987351 801.15741754195 390.77582987351 801.15741754195 390.77582987351 C 801.15741754195 390.77582987351 804.85741754195 413.27582987351 806.05741754195 421.27582987351 C 814.05741754195 422.47582987351 836.55741754195 426.17582987351 836.55741754195 426.17582987351 C 836.55741754195 426.17582987351 814.15741754195 429.87582987351 806.15741754195 431.07582987351 C 804.95741754195 439.07582987351 801.25741754195 461.57582987351 801.25741754195 461.57582987351 C 801.25741754195 461.57582987351 797.55741754195 439.07582987351 796.35741754195 431.07582987351 C 788.35741754195 429.87582987351 765.85741754195 426.17582987351 765.85741754195 426.17582987351 C 765.85741754195 426.17582987351 788.25741754195 422.47582987351 796.25741754195 421.27582987351 Z"/><path fill="#2c2075" transform="matrix(0.5759320811524299 0 0 0.5759320811524299 99.09230708140313 20.31285331279861)" d="M 734.45741754195 358.67582987351 C 739.15741754195 357.97582987351 752.35741754195 355.77582987351 752.35741754195 355.77582987351 C 752.35741754195 355.77582987351 739.15741754195 353.57582987351 734.45741754195 352.87582987351 C 733.75741754195 348.17582987351 731.55741754195 334.97582987351 731.55741754195 334.97582987351 C 731.55741754195 334.97582987351 729.35741754195 348.17582987351 728.65741754195 352.87582987351 C 723.95741754195 353.57582987351 710.75741754195 355.77582987351 710.75741754195 355.77582987351 C 710.75741754195 355.77582987351 723.95741754195 357.97582987351 728.65741754195 358.67582987351 C 729.35741754195 363.37582987351 731.55741754195 376.57582987351 731.55741754195 376.57582987351 C 731.55741754195 376.57582987351 733.75741754195 363.37582987351 734.45741754195 358.67582987351 Z"/><path fill="#2c2075" transform="matrix(0.5759320811524299 0 0 0.5759320811524299 99.09230708140313 20.31285331279861)" d="M 687.75741754195 374.17582987351 C 690.45741754195 373.77582987351 697.95741754195 372.57582987351 697.95741754195 372.57582987351 C 697.95741754195 372.57582987351 690.45741754195 371.37582987351 687.75741754195 370.97582987351 C 687.35741754195 368.27582987351 686.15741754195 360.77582987351 686.15741754195 360.77582987351 C 686.15741754195 360.77582987351 684.95741754195 368.27582987351 684.55741754195 370.97582987351 C 681.85741754195 371.37582987351 674.35741754195 372.57582987351 674.35741754195 372.57582987351 C 674.35741754195 372.57582987351 681.85741754195 373.77582987351 684.55741754195 374.17582987351 C 684.95741754195 376.87582987351 686.15741754195 384.37582987351 686.15741754195 384.37582987351 C 686.15741754195 384.37582987351 687.35741754195 376.77582987351 687.75741754195 374.17582987351 Z"/><path id="text" fill="#2c2075" transform="matrix(1.6474619671637296 0 0 1.6474619671637296 -5.693628558517849 455.4161921976201)" d="M 94.50514285714 100.35811657143 L 94.50514285714 98.34211657143 C 97.96114285714 98.34211657143 99.97714285714 97.70211657143 100.55314285714 96.42211657143 L 100.55314285714 48.13411657143 C 99.97714285714 46.85411657143 97.96114285714 46.21411657143 94.50514285714 46.21411657143 L 94.50514285714 44.19811657143 L 118.60114285714 44.19811657143 L 118.60114285714 46.21411657143 C 115.14514285714 46.21411657143 113.12914285714 46.85411657143 112.55314285714 48.13411657143 L 112.55314285714 96.42211657143 C 113.12914285714 97.70211657143 115.14514285714 98.34211657143 118.60114285714 98.34211657143 L 118.60114285714 100.35811657143 L 94.50514285714 100.35811657143 Z M 131.36914285714 100.35811657143 L 131.36914285714 98.34211657143 C 132.90514285714 98.34211657143 134.08914285714 98.24611657143 134.92114285714 98.05411657143 L 113.03314285714 70.21411657143 L 136.55314285714 46.88611657143 C 135.65714285714 46.43811657143 134.02514285714 46.21411657143 131.65714285714 46.21411657143 L 131.65714285714 44.19811657143 L 146.72914285714 44.19811657143 L 146.72914285714 46.21411657143 C 146.15314285714 46.21411657143 145.64114285714 46.23011657143 145.19314285714 46.26211657143 C 144.74514285714 46.29411657143 144.32914285714 46.37411657143 143.94514285714 46.50211657143 C 143.56114285714 46.63011657143 143.24114285714 46.72611657143 142.98514285714 46.79011657143 C 142.72914285714 46.85411657143 142.47314285714 46.98211657143 142.21714285714 47.17411657143 C 141.96114285714 47.36611657143 141.78514285714 47.49411657143 141.68914285714 47.55811657143 C 141.59314285714 47.62211657143 141.41714285714 47.78211657143 141.16114285714 48.03811657143 L 140.77714285714 48.42211657143 L 123.30514285714 65.60611657143 L 147.40114285714 96.80611657143 C 148.23314285714 97.83011657143 150.24914285714 98.34211657143 153.44914285714 98.34211657143 L 153.44914285714 100.35811657143 L 131.36914285714 100.35811657143 Z M 163.72114285714 65.22211657143 C 165.19314285714 65.22211657143 165.92914285714 66.53411657143 165.92914285714 69.15811657143 C 165.92914285714 70.24611657143 165.38514285714 71.07811657143 164.29714285714 71.65411657143 C 163.20914285714 72.23011657143 162.05714285714 72.51811657143 160.84114285714 72.51811657143 C 159.56114285714 72.51811657143 158.42514285714 72.07011657143 157.43314285714 71.17411657143 C 156.44114285714 70.27811657143 155.94514285714 69.12611657143 155.94514285714 67.71811657143 C 155.94514285714 64.45411657143 157.56114285714 61.87811657143 160.79314285714 59.99011657143 C 164.02514285714 58.10211657143 168.23314285714 57.15811657143 173.41714285714 57.15811657143 C 179.49714285714 57.15811657143 184.23314285714 58.67811657143 187.62514285714 61.71811657143 C 191.01714285714 64.75811657143 192.71314285714 68.61411657143 192.71314285714 73.28611657143 L 192.71314285714 92.29411657143 C 192.71314285714 94.34211657143 193.04914285714 95.84611657143 193.72114285714 96.80611657143 C 194.39314285714 97.76611657143 195.20914285714 98.24611657143 196.16914285714 98.24611657143 C 197.00114285714 98.24611657143 197.75314285714 98.02211657143 198.42514285714 97.57411657143 C 199.09714285714 97.12611657143 199.43314285714 96.58211657143 199.43314285714 95.94211657143 L 201.16114285714 95.94211657143 C 201.16114285714 99.39811657143 197.64114285714 101.12611657143 190.60114285714 101.12611657143 C 187.33714285714 101.12611657143 184.80914285714 99.97411657143 183.01714285714 97.67011657143 C 179.17714285714 100.10211657143 174.72914285714 101.31811657143 169.67314285714 101.31811657143 C 158.98514285714 101.31811657143 153.64114285714 97.41411657143 153.64114285714 89.60611657143 C 153.64114285714 88.00611657143 154.20114285714 86.56611657143 155.32114285714 85.28611657143 C 156.44114285714 84.00611657143 158.15314285714 82.91811657143 160.45714285714 82.02211657143 C 162.76114285714 81.12611657143 164.82514285714 80.42211657143 166.64914285714 79.91011657143 C 168.47314285714 79.39811657143 170.98514285714 78.80611657143 174.18514285714 78.13411657143 C 177.38514285714 77.46211657143 179.56114285714 76.96611657143 180.71314285714 76.64611657143 C 180.71314285714 70.63011657143 180.21714285714 66.45411657143 179.22514285714 64.11811657143 C 178.23314285714 61.78211657143 175.97714285714 60.61411657143 172.45714285714 60.61411657143 C 170.34514285714 60.61411657143 168.44114285714 61.04611657143 166.74514285714 61.91011657143 C 165.04914285714 62.77411657143 164.04114285714 63.87811657143 163.72114285714 65.22211657143 Z M 181.67314285714 95.36611657143 C 181.03314285714 93.63811657143 180.71314285714 91.71811657143 180.71314285714 89.60611657143 L 180.71314285714 78.75811657143 C 175.27314285714 80.42211657143 171.68914285714 81.79811657143 169.96114285714 82.88611657143 C 167.27314285714 84.67811657143 165.92914285714 86.98211657143 165.92914285714 89.79811657143 C 165.92914285714 92.74211657143 166.55314285714 94.85411657143 167.80114285714 96.13411657143 C 169.04914285714 97.41411657143 170.47314285714 98.05411657143 172.07314285714 98.05411657143 C 174.88914285714 98.05411657143 178.08914285714 97.15811657143 181.67314285714 95.36611657143 Z M 201.83314285714 100.35811657143 L 201.83314285714 98.34211657143 C 205.28914285714 98.34211657143 207.30514285714 97.70211657143 207.88114285714 96.42211657143 L 207.88114285714 63.87811657143 C 204.42514285714 63.62211657143 202.40914285714 63.49411657143 201.83314285714 63.49411657143 L 201.83314285714 61.28611657143 C 203.04914285714 61.28611657143 205.99314285714 60.59811657143 210.66514285714 59.22211657143 C 215.33714285714 57.84611657143 218.40914285714 57.15811657143 219.88114285714 57.15811657143 L 219.88114285714 61.19011657143 C 223.20914285714 58.50211657143 226.37714285714 57.15811657143 229.38514285714 57.15811657143 C 237.32114285714 57.15811657143 241.28914285714 59.07811657143 241.28914285714 62.91811657143 C 241.28914285714 64.45411657143 240.82514285714 65.67011657143 239.89714285714 66.56611657143 C 238.96914285714 67.46211657143 237.83314285714 67.91011657143 236.48914285714 67.91011657143 C 235.01714285714 67.91011657143 233.89714285714 67.52611657143 233.12914285714 66.75811657143 C 232.36114285714 65.99011657143 231.88114285714 65.12611657143 231.68914285714 64.16611657143 C 231.49714285714 63.20611657143 231.12914285714 62.34211657143 230.58514285714 61.57411657143 C 230.04114285714 60.80611657143 229.25714285714 60.42211657143 228.23314285714 60.42211657143 C 225.80114285714 60.42211657143 223.01714285714 61.76611657143 219.88114285714 64.45411657143 L 219.88114285714 96.42211657143 C 220.45714285714 97.70211657143 222.47314285714 98.34211657143 225.92914285714 98.34211657143 L 225.92914285714 100.35811657143 L 201.83314285714 100.35811657143 Z M 243.68914285714 100.35811657143 L 243.68914285714 98.34211657143 C 247.14514285714 98.34211657143 249.16114285714 97.70211657143 249.73714285714 96.42211657143 L 249.73714285714 63.87811657143 C 246.40914285714 63.62211657143 244.39314285714 63.49411657143 243.68914285714 63.49411657143 L 243.68914285714 61.28611657143 C 244.90514285714 61.28611657143 247.84914285714 60.59811657143 252.52114285714 59.22211657143 C 257.19314285714 57.84611657143 260.26514285714 57.15811657143 261.73714285714 57.15811657143 L 261.73714285714 96.42211657143 C 262.31314285714 97.70211657143 264.32914285714 98.34211657143 267.78514285714 98.34211657143 L 267.78514285714 100.35811657143 L 243.68914285714 100.35811657143 Z M 255.49714285714 51.01411657143 C 253.96114285714 51.01411657143 252.40914285714 50.45411657143 250.84114285714 49.33411657143 C 249.27314285714 48.21411657143 248.48914285714 46.88611657143 248.48914285714 45.35011657143 C 248.48914285714 44.00611657143 249.20914285714 42.75811657143 250.64914285714 41.60611657143 C 252.08914285714 40.45411657143 253.60914285714 39.87811657143 255.20914285714 39.87811657143 C 256.74514285714 39.87811657143 258.29714285714 40.43811657143 259.86514285714 41.55811657143 C 261.43314285714 42.67811657143 262.21714285714 44.03811657143 262.21714285714 45.63811657143 C 262.21714285714 46.98211657143 261.49714285714 48.21411657143 260.05714285714 49.33411657143 C 258.61714285714 50.45411657143 257.09714285714 51.01411657143 255.49714285714 51.01411657143 Z M 271.43314285714 100.35811657143 L 271.43314285714 98.34211657143 C 274.88914285714 98.34211657143 276.90514285714 97.70211657143 277.48114285714 96.42211657143 L 277.48114285714 63.87811657143 C 274.02514285714 63.62211657143 272.00914285714 63.49411657143 271.43314285714 63.49411657143 L 271.43314285714 61.28611657143 C 272.64914285714 61.28611657143 275.59314285714 60.59811657143 280.26514285714 59.22211657143 C 284.93714285714 57.84611657143 288.00914285714 57.15811657143 289.48114285714 57.15811657143 L 289.48114285714 61.19011657143 C 292.68114285714 58.50211657143 296.20114285714 57.15811657143 300.04114285714 57.15811657143 C 306.18514285714 57.15811657143 310.95314285714 58.29411657143 314.34514285714 60.56611657143 C 317.73714285714 62.83811657143 319.43314285714 66.24611657143 319.43314285714 70.79011657143 L 319.43314285714 96.42211657143 C 320.00914285714 97.70211657143 322.02514285714 98.34211657143 325.48114285714 98.34211657143 L 325.48114285714 100.35811657143 L 301.38514285714 100.35811657143 L 301.38514285714 98.34211657143 C 304.84114285714 98.34211657143 306.85714285714 97.70211657143 307.43314285714 96.42211657143 L 307.43314285714 70.11811657143 C 307.43314285714 67.23811657143 306.77714285714 64.90211657143 305.46514285714 63.11011657143 C 304.15314285714 61.31811657143 302.15314285714 60.42211657143 299.46514285714 60.42211657143 C 295.49714285714 60.42211657143 292.16914285714 61.70211657143 289.48114285714 64.26211657143 L 289.48114285714 96.42211657143 C 290.05714285714 97.70211657143 292.07314285714 98.34211657143 295.52914285714 98.34211657143 L 295.52914285714 100.35811657143 L 271.43314285714 100.35811657143 Z M 362.05714285714 59.07811657143 L 362.05714285714 46.59811657143 C 358.60114285714 46.34211657143 356.58514285714 46.21411657143 356.00914285714 46.21411657143 L 356.00914285714 44.00611657143 C 357.22514285714 44.00611657143 360.16914285714 43.31811657143 364.84114285714 41.94211657143 C 369.51314285714 40.56611657143 372.58514285714 39.87811657143 374.05714285714 39.87811657143 L 374.05714285714 94.59811657143 C 377.51314285714 94.85411657143 379.52914285714 94.98211657143 380.10514285714 94.98211657143 L 380.10514285714 97.19011657143 C 378.88914285714 97.19011657143 375.94514285714 97.87811657143 371.27314285714 99.25411657143 C 366.60114285714 100.63011657143 363.52914285714 101.31811657143 362.05714285714 101.31811657143 L 362.05714285714 98.15011657143 C 358.98514285714 100.26211657143 355.14514285714 101.31811657143 350.53714285714 101.31811657143 C 348.87314285714 101.31811657143 347.16114285714 101.11011657143 345.40114285714 100.69411657143 C 343.64114285714 100.27811657143 341.75314285714 99.54211657143 339.73714285714 98.48611657143 C 337.72114285714 97.43011657143 335.94514285714 96.08611657143 334.40914285714 94.45411657143 C 332.87314285714 92.82211657143 331.59314285714 90.67811657143 330.56914285714 88.02211657143 C 329.54514285714 85.36611657143 329.03314285714 82.37411657143 329.03314285714 79.04611657143 C 329.03314285714 72.00611657143 331.30514285714 66.53411657143 335.84914285714 62.63011657143 C 340.39314285714 58.72611657143 345.99314285714 56.77411657143 352.64914285714 56.77411657143 C 356.29714285714 56.77411657143 359.43314285714 57.54211657143 362.05714285714 59.07811657143 Z M 362.05714285714 62.15011657143 C 359.62514285714 60.74211657143 356.68114285714 60.03811657143 353.22514285714 60.03811657143 C 350.40914285714 60.03811657143 347.75314285714 61.76611657143 345.25714285714 65.22211657143 C 342.76114285714 68.67811657143 341.51314285714 73.28611657143 341.51314285714 79.04611657143 C 341.51314285714 84.35811657143 342.56914285714 88.85411657143 344.68114285714 92.53411657143 C 346.79314285714 96.21411657143 349.06514285714 98.05411657143 351.49714285714 98.05411657143 C 355.91314285714 98.05411657143 359.43314285714 97.03011657143 362.05714285714 94.98211657143 L 362.05714285714 62.15011657143 Z M 396.90514285714 77.22211657143 C 397.03314285714 82.79011657143 398.29714285714 87.59011657143 400.69714285714 91.62211657143 C 403.09714285714 95.65411657143 406.15314285714 97.67011657143 409.86514285714 97.67011657143 C 415.43314285714 97.67011657143 419.91314285714 95.55811657143 423.30514285714 91.33411657143 L 425.60914285714 92.48611657143 C 423.75314285714 95.55811657143 421.33714285714 97.79811657143 418.36114285714 99.20611657143 C 415.38514285714 100.61411657143 411.46514285714 101.31811657143 406.60114285714 101.31811657143 C 404.10514285714 101.31811657143 401.67314285714 100.95011657143 399.30514285714 100.21411657143 C 396.93714285714 99.47811657143 394.58514285714 98.26211657143 392.24914285714 96.56611657143 C 389.91314285714 94.87011657143 388.02514285714 92.35811657143 386.58514285714 89.03011657143 C 385.14514285714 85.70211657143 384.42514285714 81.73411657143 384.42514285714 77.12611657143 C 384.42514285714 71.55811657143 386.39314285714 66.83811657143 390.32914285714 62.96611657143 C 394.26514285714 59.09411657143 399.36914285714 57.15811657143 405.64114285714 57.15811657143 C 412.48914285714 57.15811657143 417.80114285714 59.09411657143 421.57714285714 62.96611657143 C 425.35314285714 66.83811657143 427.24114285714 71.59011657143 427.24114285714 77.22211657143 L 396.90514285714 77.22211657143 Z M 397.00114285714 74.24611657143 L 414.47314285714 74.24611657143 C 414.08914285714 69.70211657143 413.30514285714 66.19811657143 412.12114285714 63.73411657143 C 410.93714285714 61.27011657143 409.03314285714 60.03811657143 406.40914285714 60.03811657143 C 404.10514285714 60.03811657143 402.04114285714 61.20611657143 400.21714285714 63.54211657143 C 398.39314285714 65.87811657143 397.32114285714 69.44611657143 397.00114285714 74.24611657143 Z M 431.84914285714 100.35811657143 L 431.84914285714 98.34211657143 C 435.30514285714 98.34211657143 437.32114285714 97.70211657143 437.89714285714 96.42211657143 L 437.89714285714 63.87811657143 C 434.44114285714 63.62211657143 432.42514285714 63.49411657143 431.84914285714 63.49411657143 L 431.84914285714 61.28611657143 C 433.06514285714 61.28611657143 436.00914285714 60.59811657143 440.68114285714 59.22211657143 C 445.35314285714 57.84611657143 448.42514285714 57.15811657143 449.89714285714 57.15811657143 L 449.89714285714 61.19011657143 C 453.09714285714 58.50211657143 456.61714285714 57.15811657143 460.45714285714 57.15811657143 C 466.60114285714 57.15811657143 471.36914285714 58.29411657143 474.76114285714 60.56611657143 C 478.15314285714 62.83811657143 479.84914285714 66.24611657143 479.84914285714 70.79011657143 L 479.84914285714 96.42211657143 C 480.42514285714 97.70211657143 482.44114285714 98.34211657143 485.89714285714 98.34211657143 L 485.89714285714 100.35811657143 L 461.80114285714 100.35811657143 L 461.80114285714 98.34211657143 C 465.25714285714 98.34211657143 467.27314285714 97.70211657143 467.84914285714 96.42211657143 L 467.84914285714 70.11811657143 C 467.84914285714 67.23811657143 467.19314285714 64.90211657143 465.88114285714 63.11011657143 C 464.56914285714 61.31811657143 462.56914285714 60.42211657143 459.88114285714 60.42211657143 C 455.91314285714 60.42211657143 452.58514285714 61.70211657143 449.89714285714 64.26211657143 L 449.89714285714 96.42211657143 C 450.47314285714 97.70211657143 452.48914285714 98.34211657143 455.94514285714 98.34211657143 L 455.94514285714 100.35811657143 L 431.84914285714 100.35811657143 Z M 506.15314285714 44.19811657143 L 506.15314285714 58.11811657143 L 514.40914285714 58.11811657143 L 514.40914285714 60.99811657143 L 506.15314285714 60.99811657143 L 506.15314285714 91.52611657143 C 506.15314285714 93.51011657143 506.50514285714 95.03011657143 507.20914285714 96.08611657143 C 507.91314285714 97.14211657143 509.22514285714 97.67011657143 511.14514285714 97.67011657143 C 512.29714285714 97.67011657143 513.46514285714 97.11011657143 514.64914285714 95.99011657143 C 515.83314285714 94.87011657143 516.64914285714 93.31811657143 517.09714285714 91.33411657143 L 519.40114285714 92.48611657143 C 518.05714285714 98.37411657143 514.21714285714 101.31811657143 507.88114285714 101.31811657143 C 502.88914285714 101.31811657143 499.25714285714 100.18211657143 496.98514285714 97.91011657143 C 494.71314285714 95.63811657143 493.57714285714 91.91011657143 493.57714285714 86.72611657143 L 493.57714285714 60.99811657143 L 486.85714285714 60.99811657143 L 486.85714285714 58.11811657143 C 490.63314285714 58.11811657143 493.92914285714 56.69411657143 496.74514285714 53.84611657143 C 499.56114285714 50.99811657143 500.96914285714 47.78211657143 500.96914285714 44.19811657143 L 506.15314285714 44.19811657143 Z"/><path id="text" fill="#424242" transform="matrix(0.8237309835818648 0 0 0.8237309835818648 -3.953908721192951 620.6368579605362)" d="M 263.50628571429 193.32423314286 C 256.14628571429 198.89223314286 247.33028571429 201.67623314286 237.05828571429 201.67623314286 C 226.78628571429 201.67623314286 218.51428571429 198.38023314286 212.24228571429 191.78823314286 C 205.97028571429 185.19623314286 202.83428571429 176.97223314286 202.83428571429 167.11623314286 C 202.83428571429 157.26023314286 205.85828571429 149.05223314286 211.90628571429 142.49223314286 C 217.95428571429 135.93223314286 226.09828571429 132.65223314286 236.33828571429 132.65223314286 C 241.07428571429 132.65223314286 245.81028571429 133.29223314286 250.54628571429 134.57223314286 C 255.28228571429 135.85223314286 258.86628571429 137.16423314286 261.29828571429 138.50823314286 L 261.29828571429 150.79623314286 L 260.24228571429 150.60423314286 C 258.64228571429 144.84423314286 255.87428571429 140.78023314286 251.93828571429 138.41223314286 C 248.00228571429 136.04423314286 242.80228571429 134.86023314286 236.33828571429 134.86023314286 C 228.14628571429 134.86023314286 221.90628571429 137.82023314286 217.61828571429 143.74023314286 C 213.33028571429 149.66023314286 211.18628571429 157.38823314286 211.18628571429 166.92423314286 C 211.18628571429 176.46023314286 213.45828571429 184.17223314286 218.00228571429 190.06023314286 C 222.54628571429 195.94823314286 228.91428571429 198.89223314286 237.10628571429 198.89223314286 C 242.99428571429 198.89223314286 247.90628571429 198.17223314286 251.84228571429 196.73223314286 C 255.77828571429 195.29223314286 259.66628571429 193.19623314286 263.50628571429 190.44423314286 L 263.50628571429 193.32423314286 Z M 275.98628571429 161.16423314286 C 279.82628571429 156.62023314286 285.04228571429 154.34823314286 291.63428571429 154.34823314286 C 298.22628571429 154.34823314286 303.53828571429 156.62023314286 307.57028571429 161.16423314286 C 311.60228571429 165.70823314286 313.61828571429 171.34023314286 313.61828571429 178.06023314286 C 313.61828571429 184.78023314286 311.68228571429 190.39623314286 307.81028571429 194.90823314286 C 303.93828571429 199.42023314286 298.70628571429 201.67623314286 292.11428571429 201.67623314286 C 285.52228571429 201.67623314286 280.22628571429 199.40423314286 276.22628571429 194.86023314286 C 272.22628571429 190.31623314286 270.22628571429 184.70023314286 270.22628571429 178.01223314286 C 270.22628571429 171.32423314286 272.14628571429 165.70823314286 275.98628571429 161.16423314286 Z M 292.11428571429 199.75623314286 C 296.78628571429 199.75623314286 300.32228571429 197.74023314286 302.72228571429 193.70823314286 C 305.12228571429 189.67623314286 306.32228571429 184.47623314286 306.32228571429 178.10823314286 C 306.32228571429 171.74023314286 305.04228571429 166.50823314286 302.48228571429 162.41223314286 C 299.92228571429 158.31623314286 296.32228571429 156.26823314286 291.68228571429 156.26823314286 C 287.04228571429 156.26823314286 283.52228571429 158.30023314286 281.12228571429 162.36423314286 C 278.72228571429 166.42823314286 277.52228571429 171.62823314286 277.52228571429 177.96423314286 C 277.52228571429 184.30023314286 278.78628571429 189.51623314286 281.31428571429 193.61223314286 C 283.84228571429 197.70823314286 287.44228571429 199.75623314286 292.11428571429 199.75623314286 Z M 336.75428571429 154.34823314286 L 336.75428571429 171.53223314286 C 337.33028571429 166.92423314286 338.93028571429 162.90823314286 341.55428571429 159.48423314286 C 344.17828571429 156.06023314286 347.66628571429 154.34823314286 352.01828571429 154.34823314286 C 361.81028571429 154.34823314286 366.70628571429 159.46823314286 366.70628571429 169.70823314286 L 366.70628571429 184.87623314286 C 366.70628571429 191.53223314286 367.13828571429 195.64423314286 368.00228571429 197.21223314286 C 368.86628571429 198.78023314286 371.15428571429 199.56423314286 374.86628571429 199.56423314286 L 375.05828571429 200.71623314286 L 351.73028571429 200.71623314286 L 351.92228571429 199.56423314286 C 355.76228571429 199.56423314286 358.06628571429 198.76423314286 358.83428571429 197.16423314286 C 359.60228571429 195.56423314286 359.98628571429 191.18023314286 359.98628571429 184.01223314286 L 359.98628571429 170.66823314286 C 359.98628571429 166.25223314286 359.29828571429 162.92423314286 357.92228571429 160.68423314286 C 356.54628571429 158.44423314286 354.37028571429 157.32423314286 351.39428571429 157.32423314286 C 348.41828571429 157.32423314286 345.93828571429 158.33223314286 343.95428571429 160.34823314286 C 341.97028571429 162.36423314286 340.49828571429 164.90823314286 339.53828571429 167.98023314286 C 337.68228571429 173.93223314286 336.75428571429 179.91623314286 336.75428571429 185.93223314286 C 336.75428571429 191.94823314286 337.15428571429 195.72423314286 337.95428571429 197.26023314286 C 338.75428571429 198.79623314286 341.04228571429 199.56423314286 344.81828571429 199.56423314286 L 345.01028571429 200.71623314286 L 321.58628571429 200.71623314286 L 321.77828571429 199.56423314286 C 325.61828571429 199.56423314286 327.95428571429 198.78023314286 328.78628571429 197.21223314286 C 329.61828571429 195.64423314286 330.03428571429 191.46823314286 330.03428571429 184.68423314286 L 330.03428571429 177.00423314286 C 330.03428571429 167.40423314286 329.55428571429 161.61223314286 328.59428571429 159.62823314286 C 328.27428571429 158.92423314286 327.71428571429 158.28423314286 326.91428571429 157.70823314286 C 326.11428571429 157.13223314286 325.25028571429 156.78023314286 324.32228571429 156.65223314286 C 323.39428571429 156.52423314286 322.13028571429 156.46023314286 320.53028571429 156.46023314286 L 320.33828571429 155.40423314286 C 325.90628571429 154.70023314286 331.37828571429 154.34823314286 336.75428571429 154.34823314286 Z M 388.21028571429 195.77223314286 C 390.45028571429 197.85223314286 393.12228571429 198.89223314286 396.22628571429 198.89223314286 C 399.33028571429 198.89223314286 401.84228571429 198.18823314286 403.76228571429 196.78023314286 C 405.68228571429 195.37223314286 406.64228571429 193.46823314286 406.64228571429 191.06823314286 C 406.64228571429 188.66823314286 405.82628571429 186.70023314286 404.19428571429 185.16423314286 C 402.56228571429 183.62823314286 400.59428571429 182.38023314286 398.29028571429 181.42023314286 C 395.98628571429 180.46023314286 393.66628571429 179.46823314286 391.33028571429 178.44423314286 C 388.99428571429 177.42023314286 387.01028571429 175.91623314286 385.37828571429 173.93223314286 C 383.74628571429 171.94823314286 382.93028571429 169.29223314286 382.93028571429 165.96423314286 C 382.93028571429 162.63623314286 384.41828571429 159.86823314286 387.39428571429 157.66023314286 C 390.37028571429 155.45223314286 393.81028571429 154.34823314286 397.71428571429 154.34823314286 C 403.28228571429 154.34823314286 407.63428571429 155.24423314286 410.77028571429 157.03623314286 C 410.77028571429 159.98023314286 410.38628571429 164.07623314286 409.61828571429 169.32423314286 L 408.46628571429 169.03623314286 C 408.46628571429 164.81223314286 407.50628571429 161.74023314286 405.58628571429 159.82023314286 C 403.66628571429 157.90023314286 401.34628571429 156.94023314286 398.62628571429 156.94023314286 C 395.90628571429 156.94023314286 393.73028571429 157.64423314286 392.09828571429 159.05223314286 C 390.46628571429 160.46023314286 389.65028571429 162.36423314286 389.65028571429 164.76423314286 C 389.65028571429 167.16423314286 390.46628571429 169.08423314286 392.09828571429 170.52423314286 C 393.73028571429 171.96423314286 395.69828571429 173.16423314286 398.00228571429 174.12423314286 C 400.30628571429 175.08423314286 402.62628571429 176.09223314286 404.96228571429 177.14823314286 C 407.29828571429 178.20423314286 409.28228571429 179.70823314286 410.91428571429 181.66023314286 C 412.54628571429 183.61223314286 413.36228571429 185.99623314286 413.36228571429 188.81223314286 C 413.36228571429 192.90823314286 411.76228571429 196.07623314286 408.56228571429 198.31623314286 C 405.36228571429 200.55623314286 401.15428571429 201.67623314286 395.93828571429 201.67623314286 C 390.72228571429 201.67623314286 386.32228571429 200.30023314286 382.73828571429 197.54823314286 C 382.73828571429 194.34823314286 383.05828571429 190.57223314286 383.69828571429 186.22023314286 L 384.85028571429 186.41223314286 C 384.85028571429 190.57223314286 385.97028571429 193.69223314286 388.21028571429 195.77223314286 Z M 458.24228571429 182.66823314286 C 458.72228571429 180.10823314286 458.96228571429 177.35623314286 458.96228571429 174.41223314286 C 458.96228571429 171.46823314286 458.89828571429 169.00423314286 458.77028571429 167.02023314286 C 458.64228571429 165.03623314286 458.41828571429 163.26023314286 458.09828571429 161.69223314286 C 457.77828571429 160.12423314286 457.23428571429 158.98823314286 456.46628571429 158.28423314286 C 455.05828571429 157.06823314286 452.72228571429 156.46023314286 449.45828571429 156.46023314286 L 449.26628571429 155.40423314286 C 454.83428571429 154.70023314286 460.30628571429 154.34823314286 465.68228571429 154.34823314286 L 465.68228571429 179.40423314286 C 465.68228571429 186.50823314286 465.90628571429 191.16423314286 466.35428571429 193.37223314286 C 466.80228571429 195.58023314286 467.89028571429 196.68423314286 469.61828571429 196.68423314286 C 470.70628571429 196.68423314286 472.14628571429 196.23623314286 473.93828571429 195.34023314286 L 474.41828571429 196.30023314286 C 473.90628571429 196.68423314286 473.23428571429 197.14823314286 472.40228571429 197.69223314286 C 471.57028571429 198.23623314286 469.87428571429 198.95623314286 467.31428571429 199.85223314286 C 464.75428571429 200.74823314286 462.29028571429 201.19623314286 459.92228571429 201.19623314286 C 459.28228571429 197.48423314286 458.96228571429 193.19623314286 458.96228571429 188.33223314286 C 456.01828571429 197.22823314286 450.93028571429 201.67623314286 443.69828571429 201.67623314286 C 433.90628571429 201.67623314286 429.01028571429 196.55623314286 429.01028571429 186.31623314286 L 429.01028571429 177.00423314286 C 429.01028571429 167.40423314286 428.53028571429 161.61223314286 427.57028571429 159.62823314286 C 427.25028571429 158.92423314286 426.69028571429 158.28423314286 425.89028571429 157.70823314286 C 425.09028571429 157.13223314286 424.22628571429 156.78023314286 423.29828571429 156.65223314286 C 422.37028571429 156.52423314286 421.10628571429 156.46023314286 419.50628571429 156.46023314286 L 419.31428571429 155.40423314286 C 424.88228571429 154.70023314286 430.35428571429 154.34823314286 435.73028571429 154.34823314286 L 435.73028571429 185.35623314286 C 435.73028571429 189.77223314286 436.41828571429 193.10023314286 437.79428571429 195.34023314286 C 439.17028571429 197.58023314286 441.31428571429 198.70023314286 444.22628571429 198.70023314286 C 447.13828571429 198.70023314286 449.57028571429 197.90023314286 451.52228571429 196.30023314286 C 453.47428571429 194.70023314286 454.96228571429 192.66823314286 455.98628571429 190.20423314286 C 457.01028571429 187.74023314286 457.76228571429 185.22823314286 458.24228571429 182.66823314286 Z M 494.38628571429 130.06023314286 L 494.38628571429 184.01223314286 C 494.38628571429 191.11623314286 494.80228571429 195.48423314286 495.63428571429 197.11623314286 C 496.46628571429 198.74823314286 498.77028571429 199.56423314286 502.54628571429 199.56423314286 L 502.73828571429 200.71623314286 L 479.21828571429 200.71623314286 L 479.41028571429 199.56423314286 C 483.25028571429 199.56423314286 485.58628571429 198.76423314286 486.41828571429 197.16423314286 C 487.25028571429 195.56423314286 487.66628571429 191.18023314286 487.66628571429 184.01223314286 L 487.66628571429 147.34023314286 C 487.66628571429 140.23623314286 487.28228571429 135.94823314286 486.51428571429 134.47623314286 C 486.25828571429 134.02823314286 485.77828571429 133.58023314286 485.07428571429 133.13223314286 C 484.37028571429 132.68423314286 483.61828571429 132.42823314286 482.81828571429 132.36423314286 C 482.01828571429 132.30023314286 480.88228571429 132.26823314286 479.41028571429 132.26823314286 L 479.21828571429 131.21223314286 C 484.01828571429 130.44423314286 489.07428571429 130.06023314286 494.38628571429 130.06023314286 Z M 522.51428571429 155.30823314286 L 534.32228571429 155.30823314286 L 534.32228571429 157.42023314286 L 522.51428571429 157.42023314286 L 522.51428571429 193.99623314286 C 522.51428571429 195.34023314286 522.83428571429 196.41223314286 523.47428571429 197.21223314286 C 524.11428571429 198.01223314286 524.94628571429 198.41223314286 525.97028571429 198.41223314286 C 528.27428571429 198.41223314286 530.99428571429 197.74023314286 534.13028571429 196.39623314286 L 534.32228571429 197.45223314286 C 529.84228571429 200.26823314286 525.87428571429 201.67623314286 522.41828571429 201.67623314286 C 520.17828571429 201.67623314286 518.51428571429 201.13223314286 517.42628571429 200.04423314286 C 516.33828571429 198.95623314286 515.79428571429 197.06823314286 515.79428571429 194.38023314286 L 515.79428571429 157.42023314286 L 510.03428571429 157.42023314286 L 510.03428571429 155.30823314286 C 513.49028571429 155.30823314286 515.90628571429 154.33223314286 517.28228571429 152.38023314286 C 518.65828571429 150.42823314286 519.69828571429 147.53223314286 520.40228571429 143.69223314286 L 522.51428571429 143.50023314286 L 522.51428571429 155.30823314286 Z M 545.84228571429 161.16423314286 C 549.68228571429 156.62023314286 554.89828571429 154.34823314286 561.49028571429 154.34823314286 C 568.08228571429 154.34823314286 573.39428571429 156.62023314286 577.42628571429 161.16423314286 C 581.45828571429 165.70823314286 583.47428571429 171.34023314286 583.47428571429 178.06023314286 C 583.47428571429 184.78023314286 581.53828571429 190.39623314286 577.66628571429 194.90823314286 C 573.79428571429 199.42023314286 568.56228571429 201.67623314286 561.97028571429 201.67623314286 C 555.37828571429 201.67623314286 550.08228571429 199.40423314286 546.08228571429 194.86023314286 C 542.08228571429 190.31623314286 540.08228571429 184.70023314286 540.08228571429 178.01223314286 C 540.08228571429 171.32423314286 542.00228571429 165.70823314286 545.84228571429 161.16423314286 Z M 561.97028571429 199.75623314286 C 566.64228571429 199.75623314286 570.17828571429 197.74023314286 572.57828571429 193.70823314286 C 574.97828571429 189.67623314286 576.17828571429 184.47623314286 576.17828571429 178.10823314286 C 576.17828571429 171.74023314286 574.89828571429 166.50823314286 572.33828571429 162.41223314286 C 569.77828571429 158.31623314286 566.17828571429 156.26823314286 561.53828571429 156.26823314286 C 556.89828571429 156.26823314286 553.37828571429 158.30023314286 550.97828571429 162.36423314286 C 548.57828571429 166.42823314286 547.37828571429 171.62823314286 547.37828571429 177.96423314286 C 547.37828571429 184.30023314286 548.64228571429 189.51623314286 551.17028571429 193.61223314286 C 553.69828571429 197.70823314286 557.29828571429 199.75623314286 561.97028571429 199.75623314286 Z M 620.72228571429 153.86823314286 C 622.32228571429 153.86823314286 623.73028571429 154.22023314286 624.94628571429 154.92423314286 C 626.16228571429 155.62823314286 626.77028571429 156.58823314286 626.77028571429 157.80423314286 C 626.77028571429 159.02023314286 626.38628571429 159.98023314286 625.61828571429 160.68423314286 C 624.85028571429 161.38823314286 623.98628571429 161.74023314286 623.02628571429 161.74023314286 C 622.06628571429 161.74023314286 620.86628571429 161.32423314286 619.42628571429 160.49223314286 C 617.98628571429 159.66023314286 616.46628571429 159.24423314286 614.86628571429 159.24423314286 C 612.37028571429 159.24423314286 610.33828571429 161.54823314286 608.77028571429 166.15623314286 C 607.20228571429 170.76423314286 606.41828571429 176.10823314286 606.41828571429 182.18823314286 C 606.41828571429 190.38023314286 606.83428571429 195.34023314286 607.66628571429 197.06823314286 C 607.92228571429 197.64423314286 608.40228571429 198.17223314286 609.10628571429 198.65223314286 C 609.81028571429 199.13223314286 610.54628571429 199.40423314286 611.31428571429 199.46823314286 C 612.08228571429 199.53223314286 613.17028571429 199.56423314286 614.57828571429 199.56423314286 L 614.77028571429 200.71623314286 L 591.44228571429 200.71623314286 L 591.63428571429 199.56423314286 C 593.68228571429 199.56423314286 595.17028571429 199.45223314286 596.09828571429 199.22823314286 C 597.02628571429 199.00423314286 597.81028571429 198.22023314286 598.45028571429 196.87623314286 C 599.09028571429 195.53223314286 599.45828571429 193.85223314286 599.55428571429 191.83623314286 C 599.65028571429 189.82023314286 599.69828571429 186.60423314286 599.69828571429 182.18823314286 L 599.69828571429 176.62023314286 C 599.69828571429 167.72423314286 599.45828571429 162.66823314286 598.97828571429 161.45223314286 C 598.49828571429 160.23623314286 598.06628571429 159.27623314286 597.68228571429 158.57223314286 C 597.29828571429 157.86823314286 596.72228571429 157.38823314286 595.95428571429 157.13223314286 C 594.54628571429 156.74823314286 592.69028571429 156.55623314286 590.38628571429 156.55623314286 L 590.19428571429 155.50023314286 C 595.63428571429 154.73223314286 601.04228571429 154.34823314286 606.41828571429 154.34823314286 L 606.41828571429 168.46023314286 C 607.12228571429 163.91623314286 608.70628571429 160.34823314286 611.17028571429 157.75623314286 C 613.63428571429 155.16423314286 616.81828571429 153.86823314286 620.72228571429 153.86823314286 Z M 636.94628571429 138.98823314286 C 636.94628571429 137.51623314286 637.49028571429 136.23623314286 638.57828571429 135.14823314286 C 639.66628571429 134.06023314286 640.94628571429 133.51623314286 642.41828571429 133.51623314286 C 643.89028571429 133.51623314286 645.17028571429 134.06023314286 646.25828571429 135.14823314286 C 647.34628571429 136.23623314286 647.89028571429 137.51623314286 647.89028571429 138.98823314286 C 647.89028571429 140.46023314286 647.34628571429 141.74023314286 646.25828571429 142.82823314286 C 645.17028571429 143.91623314286 643.89028571429 144.46023314286 642.41828571429 144.46023314286 C 640.94628571429 144.46023314286 639.66628571429 143.91623314286 638.57828571429 142.82823314286 C 637.49028571429 141.74023314286 636.94628571429 140.46023314286 636.94628571429 138.98823314286 Z M 646.06628571429 154.34823314286 L 646.06628571429 184.87623314286 C 646.06628571429 191.59623314286 646.46628571429 195.72423314286 647.26628571429 197.26023314286 C 648.06628571429 198.79623314286 650.35428571429 199.56423314286 654.13028571429 199.56423314286 L 654.32228571429 200.71623314286 L 630.89828571429 200.71623314286 L 631.09028571429 199.56423314286 C 634.93028571429 199.56423314286 637.26628571429 198.78023314286 638.09828571429 197.21223314286 C 638.93028571429 195.64423314286 639.34628571429 191.46823314286 639.34628571429 184.68423314286 L 639.34628571429 177.96423314286 C 639.34628571429 170.54023314286 639.13828571429 165.62823314286 638.72228571429 163.22823314286 C 638.30628571429 160.82823314286 637.71428571429 159.27623314286 636.94628571429 158.57223314286 C 635.41028571429 157.16423314286 633.04228571429 156.46023314286 629.84228571429 156.46023314286 L 629.65028571429 155.40423314286 C 635.21828571429 154.70023314286 640.69028571429 154.34823314286 646.06628571429 154.34823314286 Z M 666.80228571429 161.16423314286 C 670.64228571429 156.62023314286 675.85828571429 154.34823314286 682.45028571429 154.34823314286 C 689.04228571429 154.34823314286 694.35428571429 156.62023314286 698.38628571429 161.16423314286 C 702.41828571429 165.70823314286 704.43428571429 171.34023314286 704.43428571429 178.06023314286 C 704.43428571429 184.78023314286 702.49828571429 190.39623314286 698.62628571429 194.90823314286 C 694.75428571429 199.42023314286 689.52228571429 201.67623314286 682.93028571429 201.67623314286 C 676.33828571429 201.67623314286 671.04228571429 199.40423314286 667.04228571429 194.86023314286 C 663.04228571429 190.31623314286 661.04228571429 184.70023314286 661.04228571429 178.01223314286 C 661.04228571429 171.32423314286 662.96228571429 165.70823314286 666.80228571429 161.16423314286 Z M 682.93028571429 199.75623314286 C 687.60228571429 199.75623314286 691.13828571429 197.74023314286 693.53828571429 193.70823314286 C 695.93828571429 189.67623314286 697.13828571429 184.47623314286 697.13828571429 178.10823314286 C 697.13828571429 171.74023314286 695.85828571429 166.50823314286 693.29828571429 162.41223314286 C 690.73828571429 158.31623314286 687.13828571429 156.26823314286 682.49828571429 156.26823314286 C 677.85828571429 156.26823314286 674.33828571429 158.30023314286 671.93828571429 162.36423314286 C 669.53828571429 166.42823314286 668.33828571429 171.62823314286 668.33828571429 177.96423314286 C 668.33828571429 184.30023314286 669.60228571429 189.51623314286 672.13028571429 193.61223314286 C 674.65828571429 197.70823314286 678.25828571429 199.75623314286 682.93028571429 199.75623314286 Z M 756.46628571429 133.51623314286 C 767.47428571429 133.51623314286 775.73028571429 134.47623314286 781.23428571429 136.39623314286 C 783.73028571429 137.29223314286 786.38628571429 138.57223314286 789.20228571429 140.23623314286 C 792.01828571429 141.90023314286 794.30628571429 143.88423314286 796.06628571429 146.18823314286 C 797.82628571429 148.49223314286 799.29828571429 151.43623314286 800.48228571429 155.02023314286 C 801.66628571429 158.60423314286 802.25828571429 162.62023314286 802.25828571429 167.06823314286 C 802.25828571429 171.51623314286 801.66628571429 175.51623314286 800.48228571429 179.06823314286 C 799.29828571429 182.62023314286 797.82628571429 185.54823314286 796.06628571429 187.85223314286 C 794.30628571429 190.15623314286 792.13028571429 192.15623314286 789.53828571429 193.85223314286 C 786.94628571429 195.54823314286 784.49828571429 196.81223314286 782.19428571429 197.64423314286 C 779.89028571429 198.47623314286 777.33028571429 199.14823314286 774.51428571429 199.66023314286 C 770.73828571429 200.36423314286 766.86628571429 200.71623314286 762.89828571429 200.71623314286 L 737.07428571429 200.71623314286 L 737.26628571429 199.56423314286 C 740.46628571429 199.56423314286 742.80228571429 198.95623314286 744.27428571429 197.74023314286 C 745.87428571429 196.39623314286 746.67428571429 190.15623314286 746.67428571429 179.02023314286 L 746.67428571429 155.21223314286 C 746.67428571429 148.36423314286 746.46628571429 143.67623314286 746.05028571429 141.14823314286 C 745.63428571429 138.62023314286 745.04228571429 137.03623314286 744.27428571429 136.39623314286 C 742.80228571429 135.18023314286 740.46628571429 134.57223314286 737.26628571429 134.57223314286 L 737.07428571429 133.51623314286 L 756.46628571429 133.51623314286 Z M 756.94628571429 198.41223314286 C 757.71428571429 198.47623314286 759.29828571429 198.50823314286 761.69828571429 198.50823314286 C 764.09828571429 198.50823314286 766.72228571429 198.25223314286 769.57028571429 197.74023314286 C 772.41828571429 197.22823314286 775.36228571429 196.25223314286 778.40228571429 194.81223314286 C 781.44228571429 193.37223314286 784.06628571429 191.53223314286 786.27428571429 189.29223314286 C 788.48228571429 187.05223314286 790.30628571429 184.02823314286 791.74628571429 180.22023314286 C 793.18628571429 176.41223314286 793.90628571429 172.06023314286 793.90628571429 167.16423314286 C 793.90628571429 162.26823314286 793.20228571429 157.93223314286 791.79428571429 154.15623314286 C 790.38628571429 150.38023314286 788.56228571429 147.35623314286 786.32228571429 145.08423314286 C 784.08228571429 142.81223314286 781.45828571429 140.94023314286 778.45028571429 139.46823314286 C 773.13828571429 136.97223314286 767.28228571429 135.72423314286 760.88228571429 135.72423314286 C 758.00228571429 135.72423314286 755.50628571429 135.91623314286 753.39428571429 136.30023314286 L 753.39428571429 180.17223314286 C 753.39428571429 187.08423314286 753.58628571429 191.66023314286 753.97028571429 193.90023314286 C 754.35428571429 196.14023314286 755.34628571429 197.64423314286 756.94628571429 198.41223314286 Z M 848.24228571429 176.42823314286 L 816.75428571429 176.42823314286 L 816.75428571429 178.06023314286 C 816.75428571429 184.84423314286 818.19428571429 190.01223314286 821.07428571429 193.56423314286 C 823.95428571429 197.11623314286 827.53828571429 198.89223314286 831.82628571429 198.89223314286 C 838.22628571429 198.89223314286 842.83428571429 196.33223314286 845.65028571429 191.21223314286 L 847.09028571429 191.98023314286 C 843.76228571429 198.44423314286 838.19428571429 201.67623314286 830.38628571429 201.67623314286 C 824.62628571429 201.67623314286 819.69828571429 199.59623314286 815.60228571429 195.43623314286 C 811.50628571429 191.27623314286 809.45828571429 185.66023314286 809.45828571429 178.58823314286 C 809.45828571429 171.51623314286 811.26628571429 165.70823314286 814.88228571429 161.16423314286 C 818.49828571429 156.62023314286 823.33028571429 154.34823314286 829.37828571429 154.34823314286 C 835.42628571429 154.34823314286 840.08228571429 156.41223314286 843.34628571429 160.54023314286 C 846.61028571429 164.66823314286 848.24228571429 169.96423314286 848.24228571429 176.42823314286 Z M 829.61828571429 156.26823314286 C 825.90628571429 156.26823314286 822.97828571429 157.85223314286 820.83428571429 161.02023314286 C 818.69028571429 164.18823314286 817.39428571429 168.39623314286 816.94628571429 173.64423314286 L 840.85028571429 173.64423314286 C 840.40228571429 162.06023314286 836.65828571429 156.26823314286 829.61828571429 156.26823314286 Z M 872.33828571429 154.34823314286 L 872.33828571429 171.53223314286 C 872.91428571429 166.92423314286 874.51428571429 162.90823314286 877.13828571429 159.48423314286 C 879.76228571429 156.06023314286 883.25028571429 154.34823314286 887.60228571429 154.34823314286 C 897.39428571429 154.34823314286 902.29028571429 159.46823314286 902.29028571429 169.70823314286 L 902.29028571429 184.87623314286 C 902.29028571429 191.53223314286 902.72228571429 195.64423314286 903.58628571429 197.21223314286 C 904.45028571429 198.78023314286 906.73828571429 199.56423314286 910.45028571429 199.56423314286 L 910.64228571429 200.71623314286 L 887.31428571429 200.71623314286 L 887.50628571429 199.56423314286 C 891.34628571429 199.56423314286 893.65028571429 198.76423314286 894.41828571429 197.16423314286 C 895.18628571429 195.56423314286 895.57028571429 191.18023314286 895.57028571429 184.01223314286 L 895.57028571429 170.66823314286 C 895.57028571429 166.25223314286 894.88228571429 162.92423314286 893.50628571429 160.68423314286 C 892.13028571429 158.44423314286 889.95428571429 157.32423314286 886.97828571429 157.32423314286 C 884.00228571429 157.32423314286 881.52228571429 158.33223314286 879.53828571429 160.34823314286 C 877.55428571429 162.36423314286 876.08228571429 164.90823314286 875.12228571429 167.98023314286 C 873.26628571429 173.93223314286 872.33828571429 179.91623314286 872.33828571429 185.93223314286 C 872.33828571429 191.94823314286 872.73828571429 195.72423314286 873.53828571429 197.26023314286 C 874.33828571429 198.79623314286 876.62628571429 199.56423314286 880.40228571429 199.56423314286 L 880.59428571429 200.71623314286 L 857.17028571429 200.71623314286 L 857.36228571429 199.56423314286 C 861.20228571429 199.56423314286 863.53828571429 198.78023314286 864.37028571429 197.21223314286 C 865.20228571429 195.64423314286 865.61828571429 191.46823314286 865.61828571429 184.68423314286 L 865.61828571429 177.00423314286 C 865.61828571429 167.40423314286 865.13828571429 161.61223314286 864.17828571429 159.62823314286 C 863.85828571429 158.92423314286 863.29828571429 158.28423314286 862.49828571429 157.70823314286 C 861.69828571429 157.13223314286 860.83428571429 156.78023314286 859.90628571429 156.65223314286 C 858.97828571429 156.52423314286 857.71428571429 156.46023314286 856.11428571429 156.46023314286 L 855.92228571429 155.40423314286 C 861.49028571429 154.70023314286 866.96228571429 154.34823314286 872.33828571429 154.34823314286 Z M 930.41828571429 155.30823314286 L 942.22628571429 155.30823314286 L 942.22628571429 157.42023314286 L 930.41828571429 157.42023314286 L 930.41828571429 193.99623314286 C 930.41828571429 195.34023314286 930.73828571429 196.41223314286 931.37828571429 197.21223314286 C 932.01828571429 198.01223314286 932.85028571429 198.41223314286 933.87428571429 198.41223314286 C 936.17828571429 198.41223314286 938.89828571429 197.74023314286 942.03428571429 196.39623314286 L 942.22628571429 197.45223314286 C 937.74628571429 200.26823314286 933.77828571429 201.67623314286 930.32228571429 201.67623314286 C 928.08228571429 201.67623314286 926.41828571429 201.13223314286 925.33028571429 200.04423314286 C 924.24228571429 198.95623314286 923.69828571429 197.06823314286 923.69828571429 194.38023314286 L 923.69828571429 157.42023314286 L 917.93828571429 157.42023314286 L 917.93828571429 155.30823314286 C 921.39428571429 155.30823314286 923.81028571429 154.33223314286 925.18628571429 152.38023314286 C 926.56228571429 150.42823314286 927.60228571429 147.53223314286 928.30628571429 143.69223314286 L 930.41828571429 143.50023314286 L 930.41828571429 155.30823314286 Z M 983.69828571429 169.70823314286 L 983.69828571429 179.40423314286 C 983.69828571429 186.50823314286 983.92228571429 191.16423314286 984.37028571429 193.37223314286 C 984.81828571429 195.58023314286 985.90628571429 196.68423314286 987.63428571429 196.68423314286 C 988.72228571429 196.68423314286 990.16228571429 196.23623314286 991.95428571429 195.34023314286 L 992.43428571429 196.30023314286 C 991.92228571429 196.68423314286 991.25028571429 197.14823314286 990.41828571429 197.69223314286 C 989.58628571429 198.23623314286 987.89028571429 198.95623314286 985.33028571429 199.85223314286 C 982.77028571429 200.74823314286 980.30628571429 201.19623314286 977.93828571429 201.19623314286 C 977.29828571429 198.50823314286 976.97828571429 194.22023314286 976.97828571429 188.33223314286 C 975.57028571429 192.30023314286 973.73028571429 195.51623314286 971.45828571429 197.98023314286 C 969.18628571429 200.44423314286 966.03428571429 201.67623314286 962.00228571429 201.67623314286 C 957.97028571429 201.67623314286 954.78628571429 200.60423314286 952.45028571429 198.46023314286 C 950.11428571429 196.31623314286 948.94628571429 193.38823314286 948.94628571429 189.67623314286 C 948.94628571429 179.37223314286 958.29028571429 174.18823314286 976.97828571429 174.12423314286 L 976.97828571429 170.66823314286 C 976.97828571429 166.06023314286 976.30628571429 162.54023314286 974.96228571429 160.10823314286 C 973.61828571429 157.67623314286 971.12228571429 156.46023314286 967.47428571429 156.46023314286 C 965.42628571429 156.46023314286 963.76228571429 156.97223314286 962.48228571429 157.99623314286 C 961.20228571429 159.02023314286 960.33828571429 160.14023314286 959.89028571429 161.35623314286 C 958.80228571429 164.68423314286 957.18628571429 166.34823314286 955.04228571429 166.34823314286 C 952.89828571429 166.34823314286 951.82628571429 165.14823314286 951.82628571429 162.74823314286 C 951.82628571429 160.34823314286 953.42628571429 158.34823314286 956.62628571429 156.74823314286 C 959.82628571429 155.14823314286 963.69828571429 154.34823314286 968.24228571429 154.34823314286 C 972.78628571429 154.34823314286 976.49828571429 155.64423314286 979.37828571429 158.23623314286 C 982.25828571429 160.82823314286 983.69828571429 164.65223314286 983.69828571429 169.70823314286 Z M 958.06628571429 196.25223314286 C 959.28228571429 197.88423314286 961.21828571429 198.70023314286 963.87428571429 198.70023314286 C 966.53028571429 198.70023314286 968.94628571429 197.40423314286 971.12228571429 194.81223314286 C 973.29828571429 192.22023314286 974.78628571429 189.34023314286 975.58628571429 186.17223314286 C 976.38628571429 183.00423314286 976.85028571429 179.72423314286 976.97828571429 176.33223314286 C 969.87428571429 176.39623314286 964.64228571429 177.70823314286 961.28228571429 180.26823314286 C 957.92228571429 182.82823314286 956.24228571429 186.09223314286 956.24228571429 190.06023314286 C 956.24228571429 192.55623314286 956.85028571429 194.62023314286 958.06628571429 196.25223314286 Z M 1012.40228571429 130.06023314286 L 1012.40228571429 184.01223314286 C 1012.40228571429 191.11623314286 1012.81828571429 195.48423314286 1013.65028571429 197.11623314286 C 1014.48228571429 198.74823314286 1016.78628571429 199.56423314286 1020.56228571429 199.56423314286 L 1020.75428571429 200.71623314286 L 997.23428571429 200.71623314286 L 997.42628571429 199.56423314286 C 1001.26628571429 199.56423314286 1003.60228571429 198.76423314286 1004.43428571429 197.16423314286 C 1005.26628571429 195.56423314286 1005.68228571429 191.18023314286 1005.68228571429 184.01223314286 L 1005.68228571429 147.34023314286 C 1005.68228571429 140.23623314286 1005.29828571429 135.94823314286 1004.53028571429 134.47623314286 C 1004.27428571429 134.02823314286 1003.79428571429 133.58023314286 1003.09028571429 133.13223314286 C 1002.38628571429 132.68423314286 1001.63428571429 132.42823314286 1000.83428571429 132.36423314286 C 1000.03428571429 132.30023314286 998.89828571429 132.26823314286 997.42628571429 132.26823314286 L 997.23428571429 131.21223314286 C 1002.03428571429 130.44423314286 1007.09028571429 130.06023314286 1012.40228571429 130.06023314286 Z"/></svg>